<svg version="1.1" id="Layer_1" xmlns="http://www.w3.org/2000/svg" xmlns:xlink="http://www.w3.org/1999/xlink" x="0px" y="0px"
     width="42.25px" height="31.75px" viewBox="17.5 31 42.25 31.75" enable-background="new 17.5 31 42.25 31.75"
     xml:space="preserve">
<g id="Your_Icon" opacity="0.7">
    <path fill="#B8C4CE" d="M57.365,43.745c-0.589-0.704-1.631-0.8-2.335-0.212l-15.905,13.26L23.22,43.532
        c-0.704-0.586-1.749-0.49-2.335,0.212c-0.587,0.703-0.492,1.749,0.211,2.335l16.967,14.144c0.308,0.257,0.686,0.385,1.062,0.385
        c0.377,0,0.755-0.128,1.062-0.385L57.154,46.08C57.857,45.494,57.952,44.448,57.365,43.745z"/>
</g>
<g id="Your_Icon_1_" opacity="0.4">
    <path fill="#B8C4CE" d="M57.365,34.466c-0.589-0.704-1.631-0.799-2.335-0.212l-15.905,13.26L23.22,34.254
        c-0.704-0.585-1.749-0.49-2.335,0.212c-0.587,0.703-0.492,1.75,0.211,2.336l16.967,14.143c0.308,0.258,0.686,0.386,1.062,0.386
        c0.378,0,0.755-0.128,1.062-0.386l16.967-14.143C57.857,36.216,57.952,35.17,57.365,34.466z"/>
</g>
</svg>