<svg
    width="101.667px"
    height="52.667px"
    viewBox="0 0 101.667 52.667">
<path fill-rule="evenodd" clip-rule="evenodd" fill="#B8C4CE" d="M51,1.715c-27.16,0-49.177,22.018-49.177,49.177h98.355
    C100.178,23.732,78.16,1.715,51,1.715z"/>
<g>
    <g>
        <g>
            <path fill-rule="evenodd" clip-rule="evenodd" fill="#FFFFFF" d="M56.625,11c0-0.395-0.314-0.714-0.703-0.714h-2.812V3.857
                c0-1.183-0.944-2.143-2.109-2.143s-2.109,0.96-2.109,2.143v6.429h-2.812c-0.388,0-0.703,0.319-0.703,0.714
                c0,0.142,0.041,0.273,0.111,0.385h-0.003l0.023,0.03c0.012,0.018,0.025,0.035,0.038,0.051l4.806,6.237
                c0.106,0.259,0.356,0.44,0.649,0.44s0.543-0.182,0.649-0.44l4.806-6.237c0.014-0.016,0.026-0.033,0.038-0.051l0.023-0.03h-0.003
                C56.584,11.273,56.625,11.142,56.625,11z"/>
        </g>
    </g>
    <rect x="48.891" y="1.669" fill="#FFFFFF" width="4.219" height="2.188"/>
</g>
</svg>