<svg
    width="44.079px"
    height="50.658px"
    viewBox="0 0 44.079 50.658">
    <g id="Your_Icon">
        <path fill="#B9C4CE" d="M41.168,31.1c-0.589-0.703-1.631-0.799-2.335-0.212l-15.905,13.26L7.022,30.888c-0.704-0.586-1.749-0.489-2.335,0.212c-0.587,0.703-0.492,1.75,0.211,2.336l16.967,14.144c0.308,0.257,0.686,0.385,1.062,0.385c0.377,0,0.755-0.128,1.062-0.385l16.967-14.144C41.66,32.85,41.755,31.803,41.168,31.1z"/>
    </g>
    <g id="Your_Icon_1_" opacity="0.4">
        <path fill="#B9C4CE" d="M41.168,21.822c-0.589-0.704-1.631-0.799-2.335-0.212L22.928,34.869L7.022,21.61
            c-0.704-0.585-1.749-0.49-2.335,0.212c-0.587,0.703-0.492,1.75,0.211,2.336l16.967,14.143c0.308,0.258,0.686,0.386,1.062,0.386
            c0.378,0,0.755-0.128,1.062-0.386l16.967-14.143C41.66,23.572,41.755,22.525,41.168,21.822z"/>
    </g>
    <g id="Your_Icon_2_" opacity="0.2">
        <path fill="#B9C4CE" d="M41.168,11.822c-0.589-0.704-1.631-0.799-2.335-0.212L22.928,24.869L7.022,11.61
            c-0.704-0.585-1.749-0.49-2.335,0.212c-0.587,0.703-0.492,1.75,0.211,2.336l16.967,14.143c0.308,0.258,0.686,0.386,1.062,0.386
            c0.378,0,0.755-0.128,1.062-0.386l16.967-14.143C41.66,13.572,41.755,12.525,41.168,11.822z"/>
    </g>
    <g id="Your_Icon_3_" opacity="0.08">
        <path fill="#B9C4CE" d="M41.168,1.822c-0.589-0.704-1.631-0.799-2.335-0.212L22.928,14.869L7.022,1.61
            C6.319,1.024,5.273,1.12,4.688,1.822C4.1,2.525,4.195,3.572,4.898,4.158l16.967,14.143c0.308,0.258,0.686,0.386,1.062,0.386
            c0.378,0,0.755-0.128,1.062-0.386L40.957,4.158C41.66,3.572,41.755,2.525,41.168,1.822z"/>
    </g>
</svg>