<svg version="1.1" id="Layer_1" xmlns="http://www.w3.org/2000/svg" xmlns:xlink="http://www.w3.org/1999/xlink" x="0px" y="0px"
	 width="101.645px" height="51.974px" viewBox="0 0 101.645 51.974" enable-background="new 0 0 101.645 51.974"
	 xml:space="preserve">
<path fill-rule="evenodd" clip-rule="evenodd" fill="#B8C4CE" d="M50.855,1.452c-27.16,0-49.177,22.018-49.177,49.177h98.355
	C100.033,23.469,78.016,1.452,50.855,1.452z"/>
<g>
	<g>
		<g>
			<path fill-rule="evenodd" clip-rule="evenodd" fill="#FFFFFF" d="M56.369,41.165h0.003l-0.023-0.03
				c-0.012-0.018-0.024-0.035-0.038-0.051l-4.806-6.237c-0.106-0.259-0.356-0.44-0.649-0.44s-0.543,0.182-0.649,0.44L45.4,41.083
				c-0.013,0.016-0.026,0.033-0.038,0.051l-0.023,0.03h0.003c-0.07,0.111-0.111,0.243-0.111,0.385c0,0.395,0.315,0.714,0.703,0.714
				h2.812v6.429c0,1.183,0.944,2.143,2.109,2.143s2.109-0.96,2.109-2.143v-6.429h2.812c0.389,0,0.703-0.319,0.703-0.714
				C56.48,41.408,56.439,41.276,56.369,41.165z"/>
		</g>
	</g>
	<rect x="48.746" y="48.692" fill="#FFFFFF" width="4.219" height="2.188"/>
</g>
</svg>
