<svg version="1.1" id="Layer_1" xmlns="http://www.w3.org/2000/svg" xmlns:xlink="http://www.w3.org/1999/xlink" x="0px" y="0px" fill="#FFFFFF"
     width="47.881px" height="31.594px" viewBox="0 0 47.881 31.594" enable-background="new 0 0 47.881 31.594" xml:space="preserve">
<g>
    <polygon points="23.118,20.105 23.118,20.051 23.065,20.051   "/>
    <path d="M39.013,16.338c-0.225,0-0.452,0.023-0.671,0.043c0.432-1.205,0.671-2.506,0.671-3.86
        c0-6.317-5.12-11.438-11.438-11.438c-5.277,0-9.718,3.575-11.037,8.436c-1.305-0.518-2.73-0.8-4.218-0.8
        c-6.317,0-11.438,5.12-11.438,11.438s5.121,11.438,11.438,11.438h26.694c4.212,0,7.621-3.424,7.621-7.635
        C46.634,19.747,43.225,16.338,39.013,16.338z M31.504,21.753l-1.076,1.103c-1.143,1.18-2.295,2.322-3.456,3.431l-1.728,1.648
        l-1.728-1.648c-1.161-1.108-2.313-2.251-3.455-3.431l-1.144-1.182c-0.39-0.399-0.584-0.784-0.584-1.156v-0.133
        c0-0.284,0.035-0.514,0.106-0.691c0.07-0.178,0.177-0.354,0.318-0.532c0.151-0.185,0.32-0.354,0.506-0.504
        c0.176-0.143,0.354-0.248,0.531-0.319c0.137-0.055,0.311-0.082,0.501-0.094v-0.007h0.087c0.027-0.001,0.049-0.006,0.076-0.006
        s0.049,0.005,0.076,0.006h2.582v-5.202c0-0.435,0.071-0.776,0.213-1.024c0.15-0.247,0.292-0.442,0.425-0.584
        c0.142-0.133,0.336-0.274,0.585-0.425c0.248-0.143,0.55-0.214,0.903-0.214s0.656,0.071,0.903,0.214
        c0.249,0.15,0.443,0.292,0.585,0.425c0.133,0.142,0.275,0.337,0.426,0.584c0.142,0.248,0.213,0.59,0.213,1.024v5.202h2.533
        c0.015,0,0.03-0.006,0.045-0.006c0.027,0,0.055,0.004,0.082,0.006h0.23v0.017c0.283,0.042,0.543,0.14,0.777,0.297
        c0.311,0.221,0.576,0.486,0.797,0.796c0.213,0.32,0.319,0.688,0.319,1.104C32.156,20.867,31.938,21.302,31.504,21.753z"/>
</g>
</svg>